<svg width="88" height="32" viewBox="0 0 88 32" fill="none" xmlns="http://www.w3.org/2000/svg">
<path d="M8 13.3995L11.8799 15.8549C12.5904 16.3049 13.4599 15.6397 13.2729 14.7984L12.2445 10.1811L15.6756 7.07027C16.302 6.50289 15.9654 5.42682 15.1427 5.35834L10.6271 4.95726L8.86012 0.594284C8.54225 -0.198095 7.45775 -0.198095 7.13988 0.594284L5.3729 4.94748L0.857274 5.34856C0.0345519 5.41703 -0.302016 6.4931 0.324375 7.06049L3.7555 10.1713L2.7271 14.7886C2.54012 15.6299 3.40958 16.2951 4.12012 15.8451L8 13.3995Z" fill="#BDBDBD"/>
<path d="M44 13.3995L47.8799 15.8549C48.5904 16.3049 49.4599 15.6397 49.2729 14.7984L48.2445 10.1811L51.6756 7.07027C52.302 6.50289 51.9654 5.42682 51.1427 5.35834L46.6271 4.95726L44.8601 0.594284C44.5422 -0.198095 43.4578 -0.198095 43.1399 0.594284L41.3729 4.94748L36.8573 5.34856C36.0346 5.41703 35.698 6.4931 36.3244 7.06049L39.7555 10.1713L38.7271 14.7886C38.5401 15.6299 39.4096 16.2951 40.1201 15.8451L44 13.3995Z" fill="#BDBDBD"/>
<path d="M26 13.3995L29.8799 15.8549C30.5904 16.3049 31.4599 15.6397 31.2729 14.7984L30.2445 10.1811L33.6756 7.07027C34.302 6.50289 33.9654 5.42682 33.1427 5.35834L28.6271 4.95726L26.8601 0.594284C26.5422 -0.198095 25.4578 -0.198095 25.1399 0.594284L23.3729 4.94748L18.8573 5.34856C18.0346 5.41703 17.698 6.4931 18.3244 7.06049L21.7555 10.1713L20.7271 14.7886C20.5401 15.6299 21.4096 16.2951 22.1201 15.8451L26 13.3995Z" fill="#BDBDBD"/>
<path d="M62 13.3995L65.8799 15.8549C66.5904 16.3049 67.4599 15.6397 67.2729 14.7984L66.2445 10.1811L69.6756 7.07027C70.302 6.50289 69.9654 5.42682 69.1427 5.35834L64.6271 4.95726L62.8601 0.594284C62.5422 -0.198095 61.4578 -0.198095 61.1399 0.594284L59.3729 4.94748L54.8573 5.34856C54.0346 5.41703 53.698 6.4931 54.3244 7.06049L57.7555 10.1713L56.7271 14.7886C56.5401 15.6299 57.4096 16.2951 58.1201 15.8451L62 13.3995Z" fill="#BDBDBD"/>
<path d="M80 13.3995L83.8799 15.8549C84.5904 16.3049 85.4599 15.6397 85.2729 14.7984L84.2445 10.1811L87.6756 7.07027C88.302 6.50289 87.9654 5.42682 87.1427 5.35834L82.6271 4.95726L80.8601 0.594284C80.5423 -0.198095 79.4578 -0.198095 79.1399 0.594284L77.3729 4.94748L72.8573 5.34856C72.0346 5.41703 71.698 6.4931 72.3244 7.06049L75.7555 10.1713L74.7271 14.7886C74.5401 15.6299 75.4096 16.2951 76.1201 15.8451L80 13.3995Z" fill="#BDBDBD"/>
<path d="M8 29.3995L11.8799 31.8549C12.5904 32.3049 13.4599 31.6397 13.2729 30.7984L12.2445 26.1811L15.6756 23.0703C16.302 22.5029 15.9654 21.4268 15.1427 21.3583L10.6271 20.9573L8.86012 16.5943C8.54225 15.8019 7.45775 15.8019 7.13988 16.5943L5.3729 20.9475L0.857274 21.3486C0.0345519 21.417 -0.302016 22.4931 0.324375 23.0605L3.7555 26.1713L2.7271 30.7886C2.54012 31.6299 3.40958 32.2951 4.12012 31.8451L8 29.3995Z" fill="#F2994A"/>
<path d="M44 29.3995L47.8799 31.8549C48.5904 32.3049 49.4599 31.6397 49.2729 30.7984L48.2445 26.1811L51.6756 23.0703C52.302 22.5029 51.9654 21.4268 51.1427 21.3583L46.6271 20.9573L44.8601 16.5943C44.5422 15.8019 43.4578 15.8019 43.1399 16.5943L41.3729 20.9475L36.8573 21.3486C36.0346 21.417 35.698 22.4931 36.3244 23.0605L39.7555 26.1713L38.7271 30.7886C38.5401 31.6299 39.4096 32.2951 40.1201 31.8451L44 29.3995Z" fill="#F2994A"/>
<path d="M26 29.3995L29.8799 31.8549C30.5904 32.3049 31.4599 31.6397 31.2729 30.7984L30.2445 26.1811L33.6756 23.0703C34.302 22.5029 33.9654 21.4268 33.1427 21.3583L28.6271 20.9573L26.8601 16.5943C26.5422 15.8019 25.4578 15.8019 25.1399 16.5943L23.3729 20.9475L18.8573 21.3486C18.0346 21.417 17.698 22.4931 18.3244 23.0605L21.7555 26.1713L20.7271 30.7886C20.5401 31.6299 21.4096 32.2951 22.1201 31.8451L26 29.3995Z" fill="#F2994A"/>
<path d="M62 29.3995L65.8799 31.8549C66.5904 32.3049 67.4599 31.6397 67.2729 30.7984L66.2445 26.1811L69.6756 23.0703C70.302 22.5029 69.9654 21.4268 69.1427 21.3583L64.6271 20.9573L62.8601 16.5943C62.5422 15.8019 61.4578 15.8019 61.1399 16.5943L59.3729 20.9475L54.8573 21.3486C54.0346 21.417 53.698 22.4931 54.3244 23.0605L57.7555 26.1713L56.7271 30.7886C56.5401 31.6299 57.4096 32.2951 58.1201 31.8451L62 29.3995Z" fill="#F2994A"/>
<path d="M80 29.3995L83.8799 31.8549C84.5904 32.3049 85.4599 31.6397 85.2729 30.7984L84.2445 26.1811L87.6756 23.0703C88.302 22.5029 87.9654 21.4268 87.1427 21.3583L82.6271 20.9573L80.8601 16.5943C80.5423 15.8019 79.4578 15.8019 79.1399 16.5943L77.3729 20.9475L72.8573 21.3486C72.0346 21.417 71.698 22.4931 72.3244 23.0605L75.7555 26.1713L74.7271 30.7886C74.5401 31.6299 75.4096 32.2951 76.1201 31.8451L80 29.3995Z" fill="#F2994A"/>
</svg>
